# Blender v2.93.3 OBJ File: ''
# www.blender.org
mtllib sign_board.mtl
o Plane
v -0.671072 0.568734 -0.002121
v -0.668911 -0.571214 0.008543
v 0.671072 -0.568734 0.002121
v 0.668911 0.571214 -0.008543
v -0.670553 0.569750 0.106459
v 0.669429 0.572230 0.100036
v 0.671590 -0.567717 0.110701
v -0.668392 -0.570197 0.117123
vt 0.000000 0.000000
vt 0.000000 1.000000
vt 1.000000 1.000000
vt 1.000000 0.000000
vt 0.000000 0.000000
vt 1.000000 0.000000
vt 1.000000 1.000000
vt 0.000000 1.000000
vn 0.0048 0.0094 0.9999
vn -0.0048 -0.0094 -0.9999
vn -0.0019 1.0000 -0.0094
vn 0.0019 -1.0000 0.0094
vn -1.0000 -0.0019 0.0048
vn 1.0000 0.0019 -0.0048
usemtl None
s 1
f 1/1/1 2/2/1 3/3/1 4/4/1
f 5/5/2 6/6/2 7/7/2 8/8/2
f 3/3/3 2/2/3 8/8/3 7/7/3
f 1/1/4 4/4/4 6/6/4 5/5/4
f 4/4/5 3/3/5 7/7/5 6/6/5
f 2/2/6 1/1/6 5/5/6 8/8/6
